<?xml version="1.0" encoding="UTF-8"?>
<svg viewBox="0 0 640 480" xmlns="http://www.w3.org/2000/svg">
    <path transform="rotate(128.29 316.3 240.15)" d="m146.77 197.38c0.003265-0.004074 0.025269-0.044128 0.027817-0.048203-0.001266-0.004089-0.009171-0.034607-0.010178-0.03801-0.091476-0.58911-0.08667-1.2119-0.002182-1.8326 0.47022-3.4544 3.6518-5.8778 7.1061-5.4076 2.159 0.2939 3.9042 1.6617 4.8025 3.4796 0.004059 0.003342 0.044144 0.025253 0.048187 0.027817 7.4294 0.45317 22.143 7.7744 26.313 3.7859 3.0918-2.9574-0.80887-9.8389-4.3223-15.219-0.004532 0.001663-0.0345 0.009155-0.037994 0.010193-1.1505 0.6389-2.5171 0.9156-3.9205 0.72456-3.4544-0.47023-5.8398-3.6619-5.3696-7.1163 0.47023-3.4544 3.6518-5.8778 7.1061-5.4076 3.4544 0.47024 5.8778 3.6518 5.4076 7.1061-0.057312 0.421-0.18944 0.84026-0.32298 1.2272 1.07e-4 0.002014 0.007782 0.029434 0.010178 0.03801 7.3758 5.036 17.869 14.138 18.774 22.631 6.2112-1.121 14.221-3.1637 21.553-6.8342-3.5236-14.355-4.1618-28.485-0.72296-40.708-1.83e-4 -0.002197-0.007813-0.02948-0.010193-0.038025-19.367-7.0547-23.511-24.715-24.271-34.48-1.0834-2.3752-1.5612-5.0724-1.2489-7.8538 0.7731-6.8855 6.1527-12.143 12.704-13.1 10.336-12.508 25.175-28.58 33.956-27.594 9.1702 1.0296 20.813 21.025 28.166 35.636 0.00354-0.001022 0.033417-0.008636 0.038025-0.010185 4.6011 2.9798 7.4022 8.428 6.7494 14.242-0.005035 0.044785-0.002014 0.079544-0.007446 0.12418 8.54e-4 0.003281 0.009521 0.03463 0.010193 0.038033 0.24069 0.55492 0.34827 0.84367 0.34827 0.84367s-3.7848 32.04-34.147 34.937c2.2052 6.2909 3.9865 13.583 9.1126 19.109 3.1284 3.3725 6.1092 5.7318 9.2433 7.5857 9.6589-3.6346 25.3-13.594 34.064-19.434-2.3064-7.6586 1.2122-19.058 4.3004-26.37-0.62747-0.35515-1.1807-0.8035-1.6746-1.3845-2.258-2.6561-1.9469-6.6501 0.70923-8.9081s6.6501-1.947 8.9081 0.70921c2.258 2.6561 1.9469 6.6501-0.70923 8.9081-0.99603 0.84674-2.1831 1.3454-3.3923 1.4793-0.13089 6.0231 0.26242 13.491 4.6127 14.326 6.2802 1.206 14.792-12.791 21.638-15.942 0.00238-3.36e-4 0.02951-0.007828 0.037994-0.010193-0.10513-1.9049 0.63956-3.8232 2.2042-5.1533 2.6561-2.258 6.6501-1.9469 8.9081 0.70921s1.9089 6.6603-0.74722 8.9183c-1.6726 1.4218-3.8566 1.7969-5.8209 1.2338-0.001862 1.22e-4 -0.029358 0.007751-0.037994 0.010193-5.3203 5.2233-20.545 11.308-20.359 17.066 0.13828 4.2866 7.8841 5.9638 14.244 6.9384 0.29233-1.2831 0.98273-2.4868 2.0617-3.4042 2.6562-2.258 6.6501-1.9469 8.9081 0.70921 2.2579 2.6561 1.9469 6.6501-0.70923 8.9081s-6.6501 1.947-8.9081-0.70923c-0.28226-0.332-0.53177-0.69859-0.73386-1.0663-8.9963 2.2079-23.516 4.0096-30.153-1.6977-2.6718 6.2976-7.3654 14.788-15.384 22.862 1.8488 0.68753 3.7997 1.481 5.881 2.3351 18.506 7.5941 34.465 7.509 59.678 14.278 14.896 3.999 41.01 19.639 62.023 35.648 5.9591-5.6712 15.49-10.144 23.023-13.054-1.4888-7.827 3.0296-18.741 6.765-25.686-0.57867-0.40894-1.0857-0.93582-1.5151-1.5495-1.9987-2.8563-1.3054-6.8089 1.5509-8.8077 2.8563-1.9987 6.771-1.2953 8.7697 1.5611 1.9988 2.8563 1.3054 6.809-1.5509 8.8077-1.0711 0.74954-2.2675 1.1174-3.484 1.1372-0.69559 5.9842-1.0082 13.453 3.2444 14.693 6.1495 1.7931 15.943-11.374 23.058-13.837 0.082733-1.8957 1.0023-3.742 2.6759-4.9131 2.8563-1.9987 6.809-1.3054 8.8077 1.5509s1.3055 6.809-1.5508 8.8077c-1.8019 1.2609-4.0306 1.4033-5.9357 0.65347-0.001892 2.9e-4 -0.029388 0.007797-0.037994 0.010193-5.7819 4.7027-21.506 9.3534-21.862 15.106-0.26468 4.2806 7.2903 6.6623 13.53 8.2294 0.4115-1.25 1.2008-2.3872 2.3612-3.1992 2.8563-1.9987 6.809-1.3054 8.8077 1.5509s1.3054 6.8089-1.5509 8.8077c-2.8563 1.9987-6.809 1.3055-8.8077-1.5509-0.24048-0.34366-0.41843-0.73723-0.58182-1.107-0.003174 0.001053-0.034821 0.009293-0.037994 0.010178-8.1349 1.2019-20.555 1.6271-27.488-2.697-3.0029 5.5965-6.7409 12.77-10.386 20.382 5.7201 5.3357 10.174 10.26 12.63 14.296 11.6 19.065 28.048 51.934 10.245 88.102-17.84 36.242-52.462 49.8-79.994 47.955-27.761-1.8602-76.837-24.923-73.23-65.766 3.5233-39.898 36.933-60.977 45.894-39.144 9.001 21.931-25.47 16.215-27.389 44.044-1.8708 27.127 62.141 59.018 94.93 29.072 34.263-31.293 33.746-62.093 11.15-87.316-3.3496-2.5777-6.868-4.7122-10.532-6.4663-4.6642 6.3726-8.0095 13.444-10.334 19.512 1.53e-4 0.002075 0.007751 0.02948 0.010132 0.038055 6.5626 4.2527 11.651 14.267 14.4 21.359 0.012482-0.003174 0.025482-0.007111 0.038055-0.010193 0.67578-0.16678 1.4224-0.24106 2.1544-0.16989 3.4698 0.3374 5.9805 3.451 5.6431 6.9208s-3.4028 6.0083-6.8726 5.6709-6.0185-3.4408-5.6811-6.9106c0.12653-1.3012 0.63733-2.4558 1.4129-3.3932-4.0964-4.4195-9.5927-9.4959-13.301-7.0688-5.3534 3.5041-1.7358 19.476-4.4701 26.496 8.24e-4 0.003479 0.009491 0.033783 0.010193 0.038025 1.3955 1.2952 2.2046 3.1667 2.0062 5.2066-0.33746 3.4698-3.4408 6.0185-6.9106 5.6812-3.4698-0.33746-6.0083-3.4028-5.6709-6.8726 0.2135-2.1957 1.5359-4.014 3.3526-4.9722 0.16794-7.4414 6.9173-22.435 2.7718-26.449-3.0782-2.9805-9.8113 1.2093-15.056 4.9304 0.68256 1.1252 1.0136 2.4701 0.87659 3.8797-0.33743 3.4698-3.4408 6.0185-6.9106 5.6811-2.8463-0.27682-5.0825-2.4268-5.6029-5.0984-0.11398-0.58518-0.13879-1.1888-0.078217-1.8123 0.33746-3.4698 3.4408-6.0186 6.9106-5.6811 0.42288 0.041107 0.82523 0.16635 1.217 0.28497 0.008667-0.002228 0.036255-0.009369 0.037994-0.010223 4.6113-7.3433 12.95-17.797 21.167-19.523-1.4742-7.5688-2.6572-16.468-2.13-23.913-15.713-2.2988-32.441-0.58252-47.837 1.3296-29.581 3.8517-72 1.5803-95.246-29.191-8.5385-11.302-16.035-24.515-21.384-38.146-9.11 0.24295-20.049-2.67-27.808-5.2594-3.1774 7.7624-15.24 13.402-23.4 16.21 0.15446 0.70425 0.19672 1.4191 0.093872 2.1747-0.47023 3.4544-3.6518 5.8778-7.1061 5.4076-3.4544-0.4702-5.8778-3.6518-5.4076-7.1061 0.47023-3.4544 3.6518-5.8778 7.1061-5.4076 1.2954 0.17636 2.4408 0.73636 3.3478 1.5473 4.5733-3.924 9.8441-9.1861 7.5609-12.985-3.3-5.4902-19.426-2.4756-26.323-5.4943-1.3472 1.3362-3.2817 2.0638-5.3057 1.7883-2.7451-0.3737-4.8736-2.4608-5.3823-5.0352-0.003891-0.013138-0.017029-0.063187-0.02037-0.07605-9.31e-4 -0.00325-0.008972-0.03447-0.010178-0.03801-0.001312-0.00412-0.009247-0.034592-0.010193-0.03801v1.5e-5z" fill="#7DBA84" fill-rule="evenodd" stroke="#000" stroke-linejoin="round" stroke-width="2"/>
</svg>
